<svg xmlns="http://www.w3.org/2000/svg" width="28.429" height="28.429"><rect id="backgroundrect" width="100%" height="100%" x="0" y="0" fill="none" stroke="none"/><defs><filter id="f001" xmlns:inkscape="http://www.inkscape.org/namespaces/inkscape" inkscape:label="Matte jelly" x="0" y="0" width="1" height="1" inkscape:menu="ABCs" inkscape:menu-tooltip="Bulging, matte jelly covering" color-interpolation-filters="sRGB">
            <feColorMatrix values="1 0 0 0 0 0 1 0 0 0 0 0 1 0 0 0 0 0 0.85 0" result="result0" in="SourceGraphic"/>
            <feGaussianBlur in="SourceAlpha" stdDeviation="7"/>
            <feSpecularLighting surfaceScale="5" specularConstant=".9" specularExponent="25">
                <feDistantLight elevation="60" azimuth="225"/>
            </feSpecularLighting>
            <feComposite operator="atop" in2="result0"/>
        </filter></defs><g class="currentLayer" style=""><title>Layer 1</title><g id="svg_1" class="selected" fill="#e84141" fill-opacity="1" filter=""><path class="a" d="M14.21496435546942,0 a14.214,14.214 0 1 0 14.214,14.214 A14.228,14.228 0 0 0 14.21496435546942,0 zm0,26.892 a12.679,12.679 0 1 1 12.678,-12.678 a12.635,12.635 0 0 1 -12.678,12.678 zm0,0 " id="svg_2" fill="#e84141" fill-opacity="1" filter=""/><path class="a" d="M11.105983398438184,11.044998657226529 a1.537,1.537 0 1 1 -1.537,-1.537 a1.532,1.532 0 0 1 1.537,1.537 zm0,0 " id="svg_3" fill="#e84141" fill-opacity="1" filter=""/><path class="a" d="M20.613966796874593,11.044998657226529 a1.537,1.537 0 1 1 -1.537,-1.537 a1.532,1.532 0 0 1 1.537,1.537 zm0,0 " id="svg_4" fill="#e84141" fill-opacity="1" filter=""/><path class="a" d="M14.190997070312733,22.090001892089845 a8.929,8.929 0 0 0 7.455,-4.046 l-1.3,-0.8280000000000003 a7.317,7.317 0 0 1 -12.281,0 l-1.3,0.8280000000000003 a8.929,8.929 0 0 0 6.4,3.9859999999999998 a10.087,10.087 0 0 0 1.02,0.06000000000000003 zm0,0 " id="svg_5" fill="#e84141" fill-opacity="1" filter=""/></g></g></svg>