<svg xmlns="http://www.w3.org/2000/svg" width="28.428" height="28.429"><rect id="backgroundrect" width="100%" height="100%" x="0" y="0" fill="none" stroke="none" class="" style=""/><defs><filter id="f001" xmlns:inkscape="http://www.inkscape.org/namespaces/inkscape" inkscape:label="Matte jelly" x="0" y="0" width="1" height="1" inkscape:menu="ABCs" inkscape:menu-tooltip="Bulging, matte jelly covering" color-interpolation-filters="sRGB">
            <feColorMatrix values="1 0 0 0 0 0 1 0 0 0 0 0 1 0 0 0 0 0 0.85 0" result="result0" in="SourceGraphic"/>
            <feGaussianBlur in="SourceAlpha" stdDeviation="7"/>
            <feSpecularLighting surfaceScale="5" specularConstant=".9" specularExponent="25">
                <feDistantLight elevation="60" azimuth="225"/>
            </feSpecularLighting>
            <feComposite operator="atop" in2="result0"/>
        </filter></defs><g class="currentLayer" style=""><title>Layer 1</title><g id="svg_1" class="selected" fill="#eb1a1a" fill-opacity="1" filter=""><path class="a" d="M14.214982666015203,0 a14.214,14.214 0 1 0 14.214,14.214 A14.228,14.228 0 0 0 14.214982666015203,0 zm0,26.892 a12.679,12.679 0 1 1 12.678,-12.678 a12.635,12.635 0 0 1 -12.678,12.678 zm0,0 " id="svg_2" fill="#eb1a1a" fill-opacity="1" filter=""/><path class="a" d="M11.105971191405843,11.044998657226529 a1.537,1.537 0 1 1 -1.537,-1.537 a1.532,1.532 0 0 1 1.537,1.537 zm0,0 " id="svg_3" fill="#eb1a1a" fill-opacity="1" filter=""/><path class="a" d="M20.613985107422195,11.044998657226529 a1.537,1.537 0 1 1 -1.537,-1.537 a1.532,1.532 0 0 1 1.537,1.537 zm0,0 " id="svg_4" fill="#eb1a1a" fill-opacity="1" filter=""/><path class="a" d="M14.118986328125175,17.21600189208982 m4.85,3.5540000000000003 H9.460986328125728 v-1.537 h9.508 z" id="svg_5" fill="#eb1a1a" fill-opacity="1" filter=""/></g></g></svg>