<svg xmlns="http://www.w3.org/2000/svg" width="28.429" height="28.429"><rect id="backgroundrect" width="100%" height="100%" x="0" y="0" fill="none" stroke="none" class="" style=""/><defs><filter id="f001" xmlns:inkscape="http://www.inkscape.org/namespaces/inkscape" inkscape:label="Matte jelly" x="0" y="0" width="1" height="1" inkscape:menu="ABCs" inkscape:menu-tooltip="Bulging, matte jelly covering" color-interpolation-filters="sRGB">
            <feColorMatrix values="1 0 0 0 0 0 1 0 0 0 0 0 1 0 0 0 0 0 0.85 0" result="result0" in="SourceGraphic"/>
            <feGaussianBlur in="SourceAlpha" stdDeviation="7"/>
            <feSpecularLighting surfaceScale="5" specularConstant=".9" specularExponent="25">
                <feDistantLight elevation="60" azimuth="225"/>
            </feSpecularLighting>
            <feComposite operator="atop" in2="result0"/>
        </filter></defs><g class="currentLayer" style=""><title>Layer 1</title><g id="svg_1" class="selected" filter="" fill="#eb1a1a" fill-opacity="1"><path class="a" d="M14.213023437499942,0 A14.214,14.214 0 1 0 28.428023437500087,14.214000000000055 A14.228,14.228 0 0 0 14.213023437499942,0 zm0,26.892 A12.679,12.679 0 1 1 26.891023437499825,14.214000000000055 A12.635,12.635 0 0 1 14.213023437499942,26.892000000000053 zm0,0 " id="svg_2" filter="" fill="#eb1a1a" fill-opacity="1"/><path class="a" d="M11.104023406982378,11.044998657226529 A1.537,1.537 0 1 1 9.56802340698232,9.507998657226608 a1.532,1.532 0 0 1 1.537,1.537 zm0,0 " id="svg_3" filter="" fill="#eb1a1a" fill-opacity="1"/><path class="a" d="M20.612025878906934,11.044998657226529 a1.537,1.537 0 1 1 -1.537,-1.537 a1.532,1.532 0 0 1 1.537,1.537 zm0,0 " id="svg_4" filter="" fill="#eb1a1a" fill-opacity="1"/><path class="a" d="M14.23702438354485,17.21600189208982 a8.93,8.93 0 0 0 -7.455,4.046 l1.3,0.8280000000000003 a7.317,7.317 0 0 1 12.281,0 l1.3,-0.8280000000000003 a8.929,8.929 0 0 0 -6.4,-3.9859999999999998 a7.492,7.492 0 0 0 -1.02,-0.06000000000000003 zm0,0 " id="svg_5" filter="" fill="#eb1a1a" fill-opacity="1"/></g></g></svg>